<svg width="60" height="60" viewBox="0 0 60 60" fill="none" xmlns="http://www.w3.org/2000/svg">
<rect x="0.5" y="0.5" width="59" height="59" rx="29.5" stroke="#333333" stroke-opacity="0.5"/>
<path fill-rule="evenodd" clip-rule="evenodd" d="M20.7256 21.0502C20.5182 21.1136 20.1805 21.4104 20.0832 21.6148C20.0293 21.7282 20.0006 21.8895 20 22.0841C19.9988 22.4373 20.1033 22.6781 20.3461 22.8815C20.6661 23.1497 20.6913 23.1535 22.2545 23.1772L23.681 23.1987L23.8036 23.3299C23.9087 23.4421 24.1338 24.1578 25.3706 28.3118C26.3936 31.7475 26.8616 33.2549 26.975 33.4789C27.2686 34.0584 27.9226 34.5504 28.57 34.6787C28.7349 34.7114 30.036 34.7221 32.8387 34.7138L36.8701 34.702L37.1614 34.6027C37.7934 34.3872 38.3233 34.0093 38.6877 33.5141C39.0969 32.9581 39.1269 32.8404 39.5868 29.9955C40.034 27.2295 40.0674 26.8675 39.925 26.3419C39.7186 25.5801 39.1321 24.8846 38.4161 24.5523C37.7137 24.2264 38.1321 24.2464 32.0231 24.2464H26.5451L26.4566 23.9578C26.4079 23.799 26.305 23.4602 26.2279 23.2047C26.0474 22.6069 25.9311 22.3627 25.6696 22.0328C25.3003 21.5668 24.7617 21.2327 24.1325 21.0792C23.8292 21.0051 23.6399 20.9969 22.3332 21.0008C21.4473 21.0034 20.8149 21.0229 20.7256 21.0502ZM37.4106 26.5145C37.4924 26.5628 37.6007 26.6853 37.6533 26.7889L37.7483 26.9762L37.3622 29.4066C37.1498 30.7433 36.9568 31.9083 36.9331 31.9954C36.8816 32.1853 36.7097 32.3902 36.5175 32.4907C36.3889 32.5579 36.0776 32.565 32.7694 32.576C29.8876 32.5858 29.1459 32.5772 29.0835 32.5333C29.0297 32.4955 28.7269 31.5478 28.1095 29.485C27.6167 27.8386 27.2135 26.4771 27.2135 26.4595C27.2135 26.4418 29.4746 26.4274 32.2382 26.4274C37.2156 26.4274 37.2642 26.4282 37.4106 26.5145ZM28.4729 35.2616C28.1089 35.355 27.8153 35.5261 27.5502 35.7993C26.7993 36.5734 26.8269 37.7428 27.6128 38.4583C28.0238 38.8323 28.4535 38.9984 29.0131 38.9993C29.7857 39.0007 30.4741 38.5791 30.8124 37.8975C30.9482 37.6241 30.9552 37.585 30.9552 37.0969C30.9552 36.6115 30.9477 36.5687 30.8164 36.3058C30.39 35.4518 29.4184 35.0189 28.4729 35.2616ZM36.3548 35.2625C35.8191 35.3993 35.3377 35.7938 35.0821 36.3058C34.9508 36.5687 34.9433 36.6115 34.9433 37.0969C34.9433 37.5843 34.9504 37.6244 35.0851 37.8957C35.5822 38.8971 36.805 39.2859 37.8539 38.776C38.1401 38.6368 38.5252 38.2553 38.6776 37.9598C39.0569 37.2247 38.9312 36.4003 38.3482 35.7993C37.8457 35.2814 37.0841 35.0763 36.3548 35.2625Z" fill="#333333"/>
<path d="M37.4106 26.5145C37.4924 26.5628 37.6007 26.6853 37.6533 26.7889L37.7483 26.9762L37.3622 29.4066C37.1498 30.7433 36.9568 31.9083 36.9331 31.9954C36.8816 32.1853 36.7097 32.3902 36.5175 32.4907C36.3889 32.5579 36.0776 32.565 32.7694 32.576C29.8876 32.5858 29.1459 32.5772 29.0835 32.5333C29.0297 32.4955 28.7269 31.5478 28.1095 29.485C27.6167 27.8386 27.2135 26.4771 27.2135 26.4595C27.2135 26.4418 29.4746 26.4274 32.2382 26.4274C37.2156 26.4274 37.2642 26.4282 37.4106 26.5145Z" fill="#333333"/>
<rect x="40" width="20" height="20" rx="10" fill="#3A5385"/>
<path d="M49.186 14.68C48.638 14.68 48.12 14.602 47.632 14.446C47.144 14.29 46.74 14.074 46.42 13.798L46.99 12.244C47.254 12.508 47.57 12.702 47.938 12.826C48.306 12.946 48.686 13.006 49.078 13.006C49.386 13.006 49.652 12.962 49.876 12.874C50.104 12.786 50.278 12.652 50.398 12.472C50.522 12.292 50.584 12.066 50.584 11.794C50.584 11.566 50.52 11.368 50.392 11.2C50.268 11.032 50.092 10.904 49.864 10.816C49.64 10.724 49.374 10.678 49.066 10.678C48.866 10.678 48.656 10.702 48.436 10.75C48.216 10.798 47.994 10.872 47.77 10.972L46.954 10.072L47.398 6.106L52.234 6.118V7.816H48.766L48.574 9.286C48.722 9.25 48.868 9.222 49.012 9.202C49.16 9.182 49.312 9.172 49.468 9.172C50.048 9.172 50.56 9.28 51.004 9.496C51.452 9.712 51.802 10.024 52.054 10.432C52.306 10.836 52.432 11.32 52.432 11.884C52.432 12.452 52.296 12.946 52.024 13.366C51.756 13.782 51.378 14.106 50.89 14.338C50.406 14.566 49.838 14.68 49.186 14.68Z" fill="white"/>
</svg>
