<svg width="60" height="60" viewBox="0 0 60 60" fill="none" xmlns="http://www.w3.org/2000/svg">
<rect x="0.5" y="0.5" width="59" height="59" rx="29.5" stroke="#333333" stroke-opacity="0.5"/>
<path d="M34.0626 38.8161C26.9613 38.8161 21.1839 33.0387 21.1839 25.9374C21.185 24.7738 21.6097 23.6505 22.3787 22.7771C23.1476 21.9038 24.2081 21.3403 25.3622 21.1918C25.5993 21.1633 25.8392 21.2124 26.0461 21.3316C26.253 21.4509 26.4157 21.6339 26.5098 21.8533L28.358 26.1656C28.4299 26.3329 28.4592 26.5154 28.4433 26.6968C28.4274 26.8782 28.3668 27.0528 28.2669 27.2051L26.7366 29.5434C26.7019 29.5952 26.6812 29.6552 26.6765 29.7174C26.6719 29.7796 26.6833 29.842 26.7098 29.8985C27.4381 31.3842 28.6427 32.5833 30.1317 33.3048C30.1885 33.3312 30.2512 33.3423 30.3136 33.3372C30.376 33.332 30.436 33.3108 30.4878 33.2755L32.7908 31.7398C32.9435 31.6377 33.1193 31.5754 33.3022 31.5585C33.4851 31.5417 33.6693 31.571 33.838 31.6436L38.1467 33.4902C38.3661 33.5844 38.5491 33.747 38.6683 33.9539C38.7876 34.1608 38.8366 34.4006 38.8082 34.6377C38.6597 35.7918 38.0962 36.8524 37.2229 37.6213C36.3496 38.3902 35.2262 38.815 34.0626 38.8161ZM25.4982 21.9192C25.4836 21.9192 25.469 21.9201 25.4545 21.922C24.4781 22.0477 23.5808 22.5245 22.9303 23.2635C22.2799 24.0025 21.9207 24.9529 21.9198 25.9374C21.9198 32.633 27.367 38.0802 34.0626 38.0802C35.0471 38.0793 35.9976 37.7201 36.7365 37.0696C37.4755 36.4191 37.9523 35.5219 38.078 34.5454C38.087 34.4669 38.0703 34.3875 38.0304 34.3192C37.9905 34.2509 37.9295 34.1974 37.8567 34.1666L33.5482 32.3201C33.4919 32.2959 33.4305 32.2862 33.3695 32.2918C33.3086 32.2974 33.2499 32.3181 33.199 32.3521L30.896 33.8879C30.7377 33.9939 30.5545 34.057 30.3644 34.071C30.1743 34.085 29.9839 34.0494 29.8117 33.9676C28.1742 33.1741 26.8495 31.8553 26.0485 30.2214C25.9663 30.0503 25.9299 29.8609 25.9425 29.6715C25.9552 29.482 26.0166 29.2991 26.1209 29.1404L27.6512 26.8021C27.6845 26.7513 27.7047 26.693 27.71 26.6326C27.7153 26.5721 27.7055 26.5112 27.6815 26.4554L25.8334 22.1433C25.8054 22.0774 25.7588 22.0211 25.6992 21.9813C25.6397 21.9414 25.5698 21.9199 25.4982 21.9192Z" fill="#333333"/>
<path d="M25.4982 21.9192C25.4836 21.9192 25.469 21.9201 25.4545 21.922C24.4781 22.0477 23.5808 22.5245 22.9303 23.2635C22.2799 24.0025 21.9207 24.9529 21.9198 25.9374C21.9198 32.633 27.367 38.0802 34.0626 38.0802C35.0471 38.0793 35.9976 37.7201 36.7365 37.0696C37.4755 36.4191 37.9523 35.5219 38.078 34.5454C38.087 34.4669 38.0703 34.3875 38.0304 34.3192C37.9905 34.2509 37.9295 34.1974 37.8567 34.1666L33.5482 32.3201C33.4919 32.2959 33.4305 32.2862 33.3695 32.2918C33.3086 32.2974 33.2499 32.3181 33.199 32.3521L30.896 33.8879C30.7377 33.9939 30.5545 34.057 30.3644 34.071C30.1743 34.085 29.9839 34.0494 29.8117 33.9676C28.1742 33.1741 26.8495 31.8553 26.0485 30.2214C25.9663 30.0503 25.9299 29.8609 25.9425 29.6715C25.9552 29.482 26.0166 29.2991 26.1209 29.1404L27.6512 26.8021C27.6845 26.7513 27.7047 26.693 27.71 26.6326C27.7153 26.5721 27.7055 26.5112 27.6815 26.4554L25.8334 22.1433C25.8054 22.0774 25.7588 22.0211 25.6992 21.9813C25.6397 21.9414 25.5698 21.9199 25.4982 21.9192Z" fill="#333333"/>
</svg>
