<svg width="14" height="14" viewBox="0 0 14 14" fill="none" xmlns="http://www.w3.org/2000/svg">
<path d="M6.33335 4.99967H7.66668C7.84349 4.99967 8.01306 5.06991 8.13808 5.19494C8.26311 5.31996 8.33335 5.48953 8.33335 5.66634C8.33335 5.84315 8.40358 6.01272 8.52861 6.13775C8.65363 6.26277 8.8232 6.33301 9.00001 6.33301C9.17682 6.33301 9.34639 6.26277 9.47142 6.13775C9.59644 6.01272 9.66668 5.84315 9.66668 5.66634C9.66668 5.13591 9.45597 4.6272 9.08089 4.25213C8.70582 3.87705 8.19711 3.66634 7.66668 3.66634H6.33335C5.80291 3.66634 5.29421 3.87705 4.91913 4.25213C4.54406 4.6272 4.33335 5.13591 4.33335 5.66634V8.33301C4.33335 8.86344 4.54406 9.37215 4.91913 9.74722C5.29421 10.1223 5.80291 10.333 6.33335 10.333H7.66668C8.19711 10.333 8.70582 10.1223 9.08089 9.74722C9.45597 9.37215 9.66668 8.86344 9.66668 8.33301C9.66668 8.1562 9.59644 7.98663 9.47142 7.8616C9.34639 7.73658 9.17682 7.66634 9.00001 7.66634C8.8232 7.66634 8.65363 7.73658 8.52861 7.8616C8.40358 7.98663 8.33335 8.1562 8.33335 8.33301C8.33335 8.50982 8.26311 8.67939 8.13808 8.80441C8.01306 8.92944 7.84349 8.99967 7.66668 8.99967H6.33335C6.15654 8.99967 5.98697 8.92944 5.86194 8.80441C5.73692 8.67939 5.66668 8.50982 5.66668 8.33301V5.66634C5.66668 5.48953 5.73692 5.31996 5.86194 5.19494C5.98697 5.06991 6.15654 4.99967 6.33335 4.99967ZM7.00001 0.333008C5.68147 0.333008 4.39254 0.724001 3.29621 1.45654C2.19988 2.18909 1.3454 3.23028 0.840816 4.44845C0.336232 5.66663 0.20421 7.00707 0.461445 8.30028C0.718679 9.59348 1.35362 10.7814 2.28597 11.7137C3.21832 12.6461 4.4062 13.281 5.69941 13.5382C6.99262 13.7955 8.33306 13.6635 9.55124 13.1589C10.7694 12.6543 11.8106 11.7998 12.5431 10.7035C13.2757 9.60715 13.6667 8.31822 13.6667 6.99967C13.6667 6.1242 13.4942 5.25729 13.1592 4.44845C12.8242 3.63961 12.3331 2.90469 11.7141 2.28563C11.095 1.66657 10.3601 1.17551 9.55124 0.840478C8.7424 0.505446 7.87549 0.333008 7.00001 0.333008ZM7.00001 12.333C5.94518 12.333 4.91403 12.0202 4.03697 11.4342C3.15991 10.8481 2.47632 10.0152 2.07266 9.04065C1.66899 8.06611 1.56337 6.99376 1.76916 5.95919C1.97495 4.92463 2.4829 3.97432 3.22878 3.22844C3.97466 2.48256 4.92497 1.97461 5.95953 1.76882C6.9941 1.56303 8.06645 1.66865 9.04099 2.07232C10.0155 2.47598 10.8485 3.15957 11.4345 4.03663C12.0206 4.91369 12.3333 5.94484 12.3333 6.99967C12.3333 8.41416 11.7714 9.77072 10.7712 10.7709C9.77106 11.7711 8.4145 12.333 7.00001 12.333Z" fill="white"/>
</svg>
