<svg width="18" height="21" viewBox="0 0 18 21" fill="none" xmlns="http://www.w3.org/2000/svg">
<path d="M17.49 6.51996C17.4843 6.49359 17.4843 6.46632 17.49 6.43996C17.4852 6.41688 17.4852 6.39304 17.49 6.36996V6.27996L17.43 6.12996C17.4056 6.08903 17.3753 6.05196 17.34 6.01996L17.25 5.93996H17.2L13.26 3.44996L9.54001 1.14996C9.45394 1.08169 9.35546 1.03075 9.25001 0.999959H9.17001C9.08062 0.98504 8.98939 0.98504 8.90001 0.999959H8.80001C8.68385 1.02565 8.57248 1.06952 8.47001 1.12996L1.00001 5.77996L0.910007 5.84996L0.820007 5.92996L0.720007 5.99996L0.670007 6.05996L0.610007 6.20996V6.29996V6.35996C0.600294 6.42627 0.600294 6.49365 0.610007 6.55996V15.29C0.609667 15.4599 0.652643 15.6271 0.734878 15.7759C0.817113 15.9246 0.935894 16.0499 1.08001 16.14L8.58001 20.78L8.73001 20.84H8.81001C8.97919 20.8936 9.16083 20.8936 9.33001 20.84H9.41001L9.56001 20.78L17 16.21C17.1441 16.1199 17.2629 15.9946 17.3451 15.8459C17.4274 15.6971 17.4703 15.5299 17.47 15.36V6.62996C17.47 6.62996 17.49 6.55996 17.49 6.51996ZM9.00001 3.16996L10.78 4.26996L5.19001 7.72996L3.40001 6.62996L9.00001 3.16996ZM8.00001 18.17L2.50001 14.81V8.41996L8.00001 11.82V18.17ZM9.00001 10.06L7.09001 8.90996L12.68 5.43996L14.6 6.62996L9.00001 10.06ZM15.5 14.78L10 18.2V11.82L15.5 8.41996V14.78Z" fill="white"/>
</svg>
