<svg width="14" height="14" viewBox="0 0 14 14" fill="none" xmlns="http://www.w3.org/2000/svg">
<path d="M10.56 2.63967C10.4018 2.63967 10.2471 2.68659 10.1155 2.7745C9.98396 2.8624 9.88142 2.98735 9.82088 3.13353C9.76033 3.27971 9.74448 3.44056 9.77535 3.59575C9.80622 3.75093 9.88241 3.89348 9.99429 4.00536C10.1062 4.11724 10.2487 4.19343 10.4039 4.2243C10.5591 4.25517 10.7199 4.23933 10.8661 4.17878C11.0123 4.11823 11.1372 4.01569 11.2252 3.88413C11.3131 3.75257 11.36 3.5979 11.36 3.43967C11.36 3.2275 11.2757 3.02402 11.1257 2.87399C10.9756 2.72396 10.7722 2.63967 10.56 2.63967ZM13.6266 4.25301C13.6137 3.69987 13.5101 3.15261 13.32 2.63301C13.1505 2.18843 12.8866 1.78586 12.5466 1.45301C12.2165 1.11129 11.813 0.849125 11.3666 0.686341C10.8484 0.490448 10.3005 0.384481 9.74665 0.373008C9.03998 0.333008 8.81331 0.333008 6.99998 0.333008C5.18665 0.333008 4.95998 0.333008 4.25331 0.373008C3.69941 0.384481 3.15154 0.490448 2.63331 0.686341C2.18776 0.850773 1.7846 1.11271 1.45331 1.45301C1.1116 1.78313 0.849431 2.18663 0.686646 2.63301C0.490754 3.15124 0.384786 3.69911 0.373313 4.25301C0.333313 4.95967 0.333313 5.18634 0.333313 6.99967C0.333313 8.81301 0.333313 9.03967 0.373313 9.74634C0.384786 10.3002 0.490754 10.8481 0.686646 11.3663C0.849431 11.8127 1.1116 12.2162 1.45331 12.5463C1.7846 12.8866 2.18776 13.1486 2.63331 13.313C3.15154 13.5089 3.69941 13.6149 4.25331 13.6263C4.95998 13.6663 5.18665 13.6663 6.99998 13.6663C8.81331 13.6663 9.03998 13.6663 9.74665 13.6263C10.3005 13.6149 10.8484 13.5089 11.3666 13.313C11.813 13.1502 12.2165 12.8881 12.5466 12.5463C12.8881 12.2147 13.1522 11.8118 13.32 11.3663C13.5101 10.8467 13.6137 10.2995 13.6266 9.74634C13.6266 9.03967 13.6666 8.81301 13.6666 6.99967C13.6666 5.18634 13.6666 4.95967 13.6266 4.25301ZM12.4266 9.66634C12.4218 10.0895 12.3451 10.5088 12.2 10.9063C12.0935 11.1965 11.9226 11.4586 11.7 11.673C11.4837 11.8933 11.2221 12.064 10.9333 12.173C10.5358 12.3182 10.1165 12.3948 9.69331 12.3997C9.02665 12.433 8.77998 12.4397 7.02665 12.4397C5.27331 12.4397 5.02665 12.4397 4.35998 12.3997C3.92057 12.4079 3.48304 12.3402 3.06665 12.1997C2.7905 12.0851 2.54088 11.9149 2.33331 11.6997C2.11204 11.4855 1.94321 11.2231 1.83998 10.933C1.67722 10.5298 1.58694 10.101 1.57331 9.66634C1.57331 8.99967 1.53331 8.75301 1.53331 6.99967C1.53331 5.24634 1.53331 4.99967 1.57331 4.33301C1.5763 3.90038 1.65528 3.47164 1.80665 3.06634C1.92401 2.78495 2.10416 2.53411 2.33331 2.33301C2.53586 2.10379 2.78617 1.92174 3.06665 1.79967C3.47301 1.65304 3.90131 1.57639 4.33331 1.57301C4.99998 1.57301 5.24665 1.53301 6.99998 1.53301C8.75331 1.53301 8.99998 1.53301 9.66665 1.57301C10.0898 1.57786 10.5091 1.65451 10.9066 1.79967C11.2096 1.91211 11.4815 2.09491 11.7 2.33301C11.9184 2.53779 12.0892 2.78816 12.2 3.06634C12.3481 3.4723 12.4248 3.90086 12.4266 4.33301C12.46 4.99967 12.4666 5.24634 12.4666 6.99967C12.4666 8.75301 12.46 8.99967 12.4266 9.66634ZM6.99998 3.57967C6.32385 3.58099 5.66329 3.78269 5.10175 4.15929C4.54021 4.53588 4.1029 5.07047 3.84507 5.69551C3.58724 6.32055 3.52046 7.00799 3.65318 7.67096C3.78589 8.33394 4.11214 8.9427 4.5907 9.42033C5.06926 9.89795 5.67865 10.223 6.34189 10.3544C7.00512 10.4859 7.69242 10.4177 8.31696 10.1587C8.94149 9.89965 9.47523 9.4613 9.85073 8.89903C10.2262 8.33676 10.4266 7.6758 10.4266 6.99967C10.4275 6.54974 10.3394 6.10408 10.1675 5.68831C9.9955 5.27254 9.74302 4.89488 9.42456 4.57704C9.1061 4.2592 8.72795 4.00746 8.31184 3.83629C7.89574 3.66513 7.44991 3.57792 6.99998 3.57967ZM6.99998 9.21967C6.5609 9.21967 6.13169 9.08947 5.76661 8.84554C5.40154 8.6016 5.11699 8.25488 4.94897 7.84923C4.78094 7.44358 4.73698 6.99721 4.82264 6.56657C4.9083 6.13594 5.11973 5.74037 5.4302 5.4299C5.74067 5.11942 6.13624 4.90799 6.56688 4.82233C6.99752 4.73667 7.44388 4.78063 7.84954 4.94866C8.25519 5.11669 8.6019 5.40123 8.84584 5.76631C9.08978 6.13139 9.21998 6.5606 9.21998 6.99967C9.21998 7.29121 9.16256 7.57989 9.05099 7.84923C8.93943 8.11857 8.7759 8.36331 8.56976 8.56945C8.36361 8.7756 8.11888 8.93912 7.84954 9.05069C7.58019 9.16225 7.29151 9.21967 6.99998 9.21967Z" fill="white"/>
</svg>
