<svg width="10" height="16" viewBox="0 0 10 16" fill="none" xmlns="http://www.w3.org/2000/svg">
<path d="M9.55331 6.29366C9.49216 6.20319 9.40972 6.12912 9.31324 6.07797C9.21675 6.02682 9.10918 6.00016 8.99998 6.00033H6.99998V4.66699H8.46665C8.64346 4.66699 8.81303 4.59675 8.93805 4.47173C9.06308 4.34671 9.13331 4.17714 9.13331 4.00033V1.33366C9.13331 1.15685 9.06308 0.987279 8.93805 0.862254C8.81303 0.73723 8.64346 0.666992 8.46665 0.666992H6.33331C5.30781 0.666992 4.32431 1.07437 3.59917 1.79951C2.87403 2.52465 2.46665 3.50816 2.46665 4.53366V6.00033H0.99998C0.823169 6.00033 0.6536 6.07056 0.528575 6.19559C0.403551 6.32061 0.333313 6.49018 0.333313 6.66699V9.33366C0.333313 9.51047 0.403551 9.68004 0.528575 9.80506C0.6536 9.93009 0.823169 10.0003 0.99998 10.0003H2.46665V14.667C2.46665 14.8438 2.53688 15.0134 2.66191 15.1384C2.78693 15.2634 2.9565 15.3337 3.13331 15.3337H6.33331C6.51012 15.3337 6.67969 15.2634 6.80472 15.1384C6.92974 15.0134 6.99998 14.8438 6.99998 14.667V10.0003H7.93331C8.06683 10.0005 8.19731 9.96049 8.30786 9.8856C8.4184 9.81072 8.50391 9.70437 8.55331 9.58033L9.61998 6.91366C9.66025 6.81271 9.67522 6.70345 9.6636 6.59538C9.65199 6.48732 9.61412 6.38374 9.55331 6.29366ZM7.47998 8.66699H6.33331C6.1565 8.66699 5.98693 8.73723 5.86191 8.86226C5.73688 8.98728 5.66665 9.15685 5.66665 9.33366V14.0003H3.79998V9.33366C3.79998 9.15685 3.72974 8.98728 3.60472 8.86226C3.47969 8.73723 3.31012 8.66699 3.13331 8.66699H1.66665V7.33366H3.13331C3.31012 7.33366 3.47969 7.26342 3.60472 7.1384C3.72974 7.01337 3.79998 6.8438 3.79998 6.66699V4.53366C3.80174 3.86232 4.06921 3.21898 4.54392 2.74427C5.01863 2.26955 5.66197 2.00209 6.33331 2.00033H7.79998V3.33366H7.26665C7.04092 3.30077 6.81086 3.31457 6.59068 3.37421C6.37051 3.43384 6.16492 3.53803 5.98665 3.68033C5.87846 3.79359 5.79433 3.92759 5.73933 4.07425C5.68434 4.22091 5.65961 4.37719 5.66665 4.53366V6.66699C5.66665 6.8438 5.73688 7.01337 5.86191 7.1384C5.98693 7.26342 6.1565 7.33366 6.33331 7.33366H8.01331L7.47998 8.66699Z" fill="white"/>
</svg>
