<svg width="16" height="14" viewBox="0 0 16 14" fill="none" xmlns="http://www.w3.org/2000/svg">
<path d="M15.3274 1.63315C15.3275 1.51539 15.2964 1.39972 15.2372 1.29791C15.1781 1.1961 15.093 1.11179 14.9906 1.05357C14.8883 0.995342 14.7723 0.965285 14.6545 0.966455C14.5368 0.967625 14.4215 0.99998 14.3203 1.06023C13.9301 1.29248 13.51 1.47035 13.0716 1.58889C12.4456 1.05171 11.6472 0.757761 10.8223 0.760765C9.91734 0.761807 9.04821 1.11449 8.39843 1.74435C7.74865 2.37421 7.36908 3.23194 7.33987 4.13642C5.55585 3.85193 3.93895 2.92077 2.7975 1.52051C2.72872 1.43707 2.64089 1.37139 2.54141 1.32901C2.44192 1.28663 2.33371 1.2688 2.22589 1.27701C2.11813 1.28588 2.01415 1.32087 1.92295 1.37895C1.83175 1.43703 1.75606 1.51645 1.70245 1.61035C1.42746 2.09022 1.26953 2.62818 1.24148 3.18055C1.21342 3.73292 1.31604 4.28411 1.54099 4.78938L1.53969 4.79068C1.43858 4.85295 1.35515 4.94012 1.29736 5.04384C1.23956 5.14757 1.20935 5.26439 1.20961 5.38313C1.20838 5.48108 1.21426 5.579 1.22719 5.6761C1.29528 6.51494 1.66704 7.30014 2.27276 7.88443C2.23167 7.96271 2.20659 8.0484 2.19899 8.13649C2.19139 8.22457 2.20141 8.31329 2.22849 8.39745C2.49256 9.22021 3.05415 9.91483 3.80336 10.3454C3.04219 10.6397 2.22031 10.7423 1.41013 10.6442C1.26017 10.6254 1.10828 10.6581 0.979358 10.7369C0.850437 10.8158 0.752144 10.9361 0.700603 11.0782C0.649062 11.2203 0.647333 11.3756 0.6957 11.5188C0.744067 11.662 0.839658 11.7845 0.966793 11.8662C2.36019 12.7636 3.98258 13.2408 5.63997 13.2406C7.51948 13.2617 9.35328 12.6611 10.8561 11.5322C12.359 10.4033 13.4466 8.80935 13.9498 6.99835C14.1852 6.20944 14.3054 5.39066 14.3066 4.56738C14.3066 4.52376 14.3066 4.47885 14.306 4.43393C14.654 4.05855 14.9237 3.61746 15.0991 3.13652C15.2745 2.65559 15.3521 2.14447 15.3274 1.63315ZM13.123 3.77442C13.0129 3.90465 12.9572 4.07228 12.9674 4.24252C12.9739 4.35252 12.9733 4.46318 12.9733 4.56738C12.9719 5.26308 12.8699 5.95492 12.6705 6.62143C12.2595 8.16235 11.3433 9.52078 10.0686 10.4792C8.79389 11.4375 7.23443 11.9404 5.63997 11.9072C5.06722 11.9074 4.49645 11.8401 3.93945 11.7067C4.64973 11.4778 5.31385 11.1249 5.90104 10.6644C6.00919 10.5792 6.08834 10.4627 6.12763 10.3308C6.16692 10.1989 6.16443 10.058 6.12049 9.92756C6.07655 9.79711 5.99332 9.68345 5.88223 9.60218C5.77113 9.52091 5.6376 9.47601 5.49997 9.47364C4.94586 9.46502 4.41673 9.24165 4.02406 8.85059C4.12367 8.83171 4.22263 8.80827 4.32094 8.78028C4.46495 8.73929 4.59097 8.65103 4.67871 8.5297C4.76646 8.40838 4.81082 8.26106 4.80465 8.11146C4.79849 7.96186 4.74216 7.81869 4.64473 7.705C4.5473 7.5913 4.41444 7.51371 4.26755 7.4847C3.94591 7.42119 3.64325 7.28435 3.3831 7.08483C3.12294 6.88531 2.9123 6.62848 2.76755 6.33431C2.88804 6.35076 3.00929 6.36097 3.13083 6.36491C3.27522 6.36709 3.41656 6.32329 3.53442 6.23985C3.65227 6.1564 3.74053 6.03763 3.78643 5.90072C3.83042 5.76256 3.82816 5.61383 3.77999 5.47707C3.73182 5.34032 3.64037 5.223 3.51951 5.14291C3.22627 4.94755 2.98607 4.68252 2.82041 4.37154C2.65475 4.06057 2.56881 3.71336 2.57029 3.36101C2.57029 3.31674 2.57159 3.27247 2.57419 3.22885C4.06837 4.62235 6.00641 5.44382 8.04686 5.54851C8.14986 5.55257 8.25243 5.53317 8.34683 5.49178C8.44123 5.45039 8.52499 5.38809 8.59179 5.30958C8.65791 5.23031 8.70472 5.13678 8.72856 5.03635C8.75239 4.93592 8.75258 4.83133 8.72912 4.73081C8.69099 4.57171 8.67155 4.40872 8.67118 4.24512C8.67179 3.67482 8.89861 3.12804 9.30188 2.72477C9.70515 2.3215 10.2519 2.09468 10.8222 2.09408C11.1157 2.09329 11.4061 2.15334 11.6751 2.27044C11.9442 2.38754 12.186 2.55914 12.3854 2.77442C12.4623 2.85714 12.5591 2.91881 12.6665 2.95358C12.774 2.98834 12.8885 2.99503 12.9993 2.97301C13.2732 2.91972 13.5431 2.84794 13.8073 2.75817C13.6271 3.12682 13.3968 3.4688 13.123 3.77442Z" fill="white"/>
</svg>
